<?xml version="1.0" standalone="no"?>
<!DOCTYPE svg PUBLIC "-//W3C//DTD SVG 20010904//EN"
 "http://www.w3.org/TR/2001/REC-SVG-20010904/DTD/svg10.dtd">
<svg version="1.0" xmlns="http://www.w3.org/2000/svg"
 width="1292.000000pt" height="885.000000pt" viewBox="0 0 1292.000000 885.000000"
 preserveAspectRatio="xMidYMid meet">

<g transform="translate(0.000000,885.000000) scale(0.100000,-0.100000)"
fill="#000000" stroke="none">
<path d="M6420 8691 c0 -5 -18 -12 -40 -16 -22 -4 -42 -10 -45 -15 -3 -4 -22
-11 -42 -15 -21 -4 -42 -10 -48 -15 -5 -4 -31 -10 -56 -14 -33 -5 -54 -16 -77
-39 l-31 -32 -141 6 c-84 4 -146 11 -153 18 -13 13 -67 15 -67 3 0 -5 -47 -12
-105 -15 -58 -3 -111 -10 -118 -14 -11 -7 -92 -26 -154 -37 -12 -2 -61 -42
-108 -90 l-86 -87 2 -52 c3 -42 0 -53 -14 -55 -9 -2 -17 -8 -17 -13 0 -5 -3
-8 -7 -7 -13 4 -123 -52 -123 -62 0 -6 -6 -10 -13 -10 -13 0 -129 -114 -138
-135 -2 -5 -30 -28 -61 -49 -32 -22 -58 -43 -58 -46 0 -4 -8 -11 -17 -14 -43
-15 -109 -71 -127 -106 -4 -8 -18 -33 -32 -55 -13 -22 -27 -48 -30 -57 -4 -10
-10 -18 -15 -18 -5 0 -9 -6 -9 -14 0 -7 -6 -19 -14 -25 -11 -10 -10 -19 9 -59
53 -110 65 -140 65 -158 0 -10 -16 -50 -35 -87 -19 -38 -35 -77 -35 -88 0 -10
-4 -19 -9 -19 -5 0 -12 -13 -16 -30 -4 -16 -10 -30 -15 -30 -5 0 -11 -13 -15
-30 -4 -16 -11 -30 -16 -30 -5 0 -9 -7 -9 -15 0 -8 4 -15 9 -15 5 0 12 -13 16
-30 4 -16 11 -30 16 -30 5 0 9 -9 9 -20 0 -11 9 -37 20 -57 11 -21 20 -46 20
-55 0 -10 5 -18 10 -18 14 0 12 -66 -2 -90 -10 -15 -10 -25 -2 -38 7 -10 15
-47 19 -82 4 -36 11 -70 17 -77 5 -6 9 -40 10 -75 0 -57 11 -95 49 -170 5 -10
9 -44 9 -75 0 -48 8 -73 43 -143 38 -76 46 -86 79 -95 50 -14 65 -29 48 -50
-10 -12 -34 -15 -110 -15 l-98 0 -52 -60 c-28 -32 -51 -63 -52 -67 0 -4 -3
-13 -5 -20 -10 -26 23 -324 37 -333 4 -3 11 -31 15 -62 4 -32 11 -58 15 -58 4
0 10 -22 14 -50 4 -27 10 -52 15 -54 5 -3 12 -22 16 -42 7 -37 9 -44 38 -102
9 -19 17 -38 17 -44 0 -6 14 -40 32 -75 36 -73 105 -139 155 -149 35 -7 44
-21 49 -74 7 -76 17 -135 24 -145 4 -5 13 -41 19 -80 7 -38 16 -74 20 -80 5
-5 12 -28 16 -50 4 -22 10 -44 15 -50 4 -5 10 -23 14 -39 4 -17 21 -46 37 -67
16 -20 29 -40 29 -44 0 -3 11 -21 25 -39 14 -18 25 -36 25 -41 0 -4 14 -24 30
-45 17 -21 30 -41 30 -45 0 -4 20 -32 45 -61 25 -28 45 -55 45 -59 0 -3 13
-23 29 -43 24 -31 30 -50 36 -114 4 -43 10 -78 15 -78 4 0 11 -41 15 -90 4
-50 11 -90 15 -90 4 0 11 -45 15 -100 4 -55 11 -103 16 -106 5 -3 9 -26 9 -52
-1 -43 -5 -50 -40 -77 -22 -16 -42 -38 -45 -47 -11 -32 -177 -177 -231 -203
-29 -14 -57 -25 -63 -25 -5 0 -22 -6 -38 -14 -45 -23 -100 -46 -111 -46 -6 0
-23 -6 -39 -14 -45 -23 -100 -46 -111 -46 -6 0 -23 -6 -39 -14 -73 -37 -141
-66 -167 -72 -16 -4 -41 -13 -55 -20 -14 -8 -34 -14 -43 -14 -10 0 -18 -4 -18
-9 0 -5 -15 -13 -32 -16 -18 -4 -37 -11 -43 -15 -5 -4 -25 -11 -42 -15 -18 -3
-33 -11 -33 -16 0 -5 -10 -9 -23 -9 -12 0 -31 -6 -42 -14 -11 -7 -36 -17 -55
-21 -19 -4 -44 -14 -55 -21 -11 -8 -30 -14 -42 -14 -13 0 -23 -4 -23 -10 0 -5
-8 -10 -17 -10 -10 0 -30 -6 -45 -14 -15 -8 -40 -17 -57 -21 -17 -4 -31 -11
-31 -16 0 -5 -5 -9 -11 -9 -11 0 -65 -43 -125 -100 -17 -17 -35 -30 -39 -30
-8 0 -148 -121 -153 -132 -2 -5 -8 -8 -14 -8 -6 0 -28 -15 -48 -32 -21 -18
-48 -42 -61 -53 -29 -25 -69 -80 -69 -95 0 -5 -3 -10 -8 -10 -8 0 -11 -6 -51
-84 -13 -25 -27 -49 -32 -52 -5 -3 -16 -20 -24 -37 -16 -35 -28 -55 -61 -102
-12 -16 -24 -40 -28 -53 -4 -12 -18 -30 -32 -38 -13 -9 -24 -25 -24 -35 0 -10
-5 -21 -10 -24 -6 -3 -10 -15 -10 -25 0 -13 -5 -17 -15 -14 -17 7 -21 34 -5
34 6 0 10 9 10 20 0 11 6 29 13 41 10 17 9 22 -13 39 -28 21 -50 11 -50 -21 0
-23 -9 -24 -25 -2 -17 22 -45 10 -38 -16 4 -17 1 -21 -17 -21 -17 0 -20 -4
-15 -20 5 -17 2 -20 -24 -20 -21 0 -35 -7 -47 -25 -20 -31 -11 -45 31 -45 39
0 69 -35 44 -51 -9 -6 -15 -3 -17 6 -2 9 -15 15 -31 15 -24 0 -27 -4 -27 -34
0 -24 4 -32 13 -29 7 3 13 10 13 17 1 29 29 -44 30 -76 0 -21 3 -38 8 -38 14
0 34 -59 27 -82 -5 -18 -4 -20 4 -8 7 11 13 12 21 4 16 -16 -7 -61 -33 -68
-27 -7 -33 0 -17 20 9 10 10 18 4 22 -6 4 -13 15 -17 24 -7 20 -32 24 -42 8
-10 -17 -33 -11 -40 10 -6 20 -35 28 -35 10 0 -5 -7 -7 -16 -3 -14 5 -16 1
-12 -21 5 -25 4 -27 -23 -21 -45 10 -95 -53 -54 -69 19 -7 20 -36 1 -36 -19 0
-28 -14 -20 -34 4 -11 13 -14 30 -10 24 6 34 -9 14 -21 -6 -3 -10 -16 -10 -28
0 -16 3 -18 12 -9 20 20 25 14 32 -45 5 -39 12 -61 26 -70 17 -12 19 -24 15
-106 -2 -51 -4 -103 -4 -117 -1 -14 -5 -32 -11 -40 -8 -12 -11 -12 -27 2 -22
20 -49 5 -49 -27 -1 -11 -4 -27 -7 -35 -3 -8 -8 -22 -10 -30 -3 -8 -6 -2 -6
14 -1 21 -5 27 -16 22 -11 -4 -15 1 -15 19 0 16 -6 25 -15 25 -12 0 -16 10
-15 38 0 20 1 138 1 262 0 260 4 295 36 333 20 25 28 46 24 70 0 4 5 7 12 7
14 0 37 40 37 64 0 7 -11 22 -25 34 -14 12 -25 31 -25 42 0 18 2 19 20 8 11
-7 20 -18 20 -23 0 -20 21 -32 46 -27 29 5 32 32 4 39 -11 3 -20 11 -20 18 0
8 -6 20 -13 27 -6 7 -12 20 -12 28 0 10 -9 14 -29 13 -28 -2 -28 -2 -10 18 16
17 16 22 4 29 -9 6 -19 5 -24 0 -15 -15 -36 -12 -30 4 8 21 -47 28 -62 8 -10
-14 -14 -14 -28 -3 -27 23 -43 -2 -22 -33 9 -14 16 -42 16 -64 0 -31 -3 -38
-20 -38 -11 0 -20 7 -21 16 0 10 -2 11 -6 3 -2 -7 -15 -13 -28 -13 -27 0 -58
-27 -49 -41 3 -6 19 -7 35 -4 30 7 41 -8 14 -19 -8 -3 -15 -12 -15 -19 0 -8
-7 -20 -15 -27 -8 -7 -15 -22 -15 -33 0 -11 -3 -17 -7 -13 -5 4 -8 22 -8 39 0
29 -2 32 -29 29 -17 -2 -42 -12 -57 -23 -15 -10 -32 -19 -38 -19 -6 0 -11 -11
-11 -25 0 -17 -7 -28 -23 -34 -13 -5 -29 -16 -37 -26 -12 -14 -10 -19 16 -40
35 -28 30 -35 -28 -40 -128 -12 -152 -16 -160 -27 -4 -7 -11 -34 -14 -61 -4
-26 -10 -50 -15 -53 -5 -2 -3 -17 3 -32 16 -37 16 -36 33 -22 9 7 18 10 22 6
8 -7 14 -49 13 -94 0 -22 4 -32 12 -30 15 5 60 -41 55 -56 -5 -15 -97 -20
-110 -7 -8 8 -1 11 23 12 34 0 85 16 65 19 -50 8 -195 -16 -195 -32 0 -4 -20
-8 -45 -8 -42 0 -58 11 -35 25 6 4 4 12 -5 21 -8 9 -13 20 -9 25 8 13 -35 47
-68 54 -21 5 -42 -2 -88 -30 -57 -34 -62 -36 -79 -21 -26 24 -48 19 -64 -14
-18 -35 -9 -46 43 -53 19 -2 -52 -4 -159 -5 l-194 -1 8 47 c11 66 12 89 14
197 1 78 4 95 16 95 9 0 19 8 22 17 11 28 36 53 55 53 17 0 31 27 26 51 -2 7
7 18 20 24 19 10 20 14 8 24 -18 15 -27 51 -13 51 6 0 -1 12 -15 28 -14 15
-23 33 -21 40 3 7 -5 12 -21 12 -14 0 -26 6 -26 13 0 13 56 67 70 67 4 0 13 6
19 13 13 16 -6 77 -27 90 -9 6 -11 18 -8 33 5 20 2 26 -20 34 -14 6 -30 8 -35
4 -5 -3 -15 -2 -21 2 -18 11 -48 12 -48 2 0 -5 -13 -7 -30 -3 -26 6 -30 3 -36
-19 -6 -24 -34 -38 -34 -16 0 5 -17 14 -37 19 -30 9 -40 7 -55 -6 -17 -15 -18
-14 -18 20 0 19 -6 37 -13 40 -6 2 -4 3 6 1 9 -1 22 7 28 18 9 17 4 25 -32 59
-23 21 -50 39 -59 39 -22 0 -44 26 -35 41 5 8 1 9 -14 4 -12 -4 -28 -2 -35 4
-14 12 -55 14 -108 5 -35 -6 -38 -9 -38 -40 0 -31 -3 -34 -28 -34 -47 0 -74
-50 -34 -65 16 -6 16 -7 0 -19 -10 -7 -18 -21 -18 -30 0 -13 6 -15 26 -10 24
6 25 5 15 -14 -8 -15 -8 -29 0 -49 l11 -28 19 24 19 23 0 -26 c0 -15 7 -29 15
-32 8 -4 15 -17 15 -29 0 -14 11 -32 28 -44 25 -19 25 -22 9 -32 -23 -14 -22
-29 3 -29 23 0 24 -3 8 -30 -9 -15 -10 -22 -1 -31 8 -8 9 -18 1 -35 -8 -17 -8
-27 2 -39 11 -13 9 -15 -15 -15 -23 0 -26 -2 -15 -15 7 -8 19 -15 27 -15 13 0
13 -3 3 -15 -7 -8 -18 -15 -25 -15 -15 0 -45 -32 -45 -49 0 -8 6 -9 18 -3 9 5
28 6 42 2 21 -6 22 -8 8 -14 -9 -4 -24 -19 -33 -33 -14 -21 -15 -29 -4 -49 7
-13 18 -24 24 -24 27 0 36 -46 33 -170 l-3 -125 -128 0 c-112 0 -130 2 -138
18 -6 9 -20 17 -31 17 -12 0 -30 7 -40 16 -13 13 -21 14 -31 5 -8 -6 -17 -8
-20 -4 -4 3 -7 2 -7 -4 0 -6 -9 -13 -20 -16 -11 -3 -20 -12 -20 -21 0 -9 -7
-16 -15 -16 -8 0 -15 5 -15 11 0 8 -4 8 -15 -1 -8 -6 -19 -9 -24 -6 -5 4 -12
2 -16 -3 -8 -13 -62 6 -69 25 -3 8 -12 14 -20 14 -12 0 -14 42 -11 290 2 261
4 293 20 310 10 11 27 22 38 26 45 14 62 45 60 109 -1 39 -6 61 -15 64 -7 2
-27 18 -44 35 -24 24 -40 31 -70 31 -25 0 -39 -5 -39 -12 0 -15 -6 -16 -39 -7
-29 7 -66 -3 -66 -18 0 -5 6 -8 12 -6 16 6 43 -20 33 -30 -4 -4 -10 -1 -12 6
-8 20 -33 -6 -33 -34 0 -16 6 -24 18 -24 9 0 13 -4 7 -8 -23 -17 -5 -62 26
-62 17 0 18 -3 9 -20 -7 -14 -8 -26 -1 -38 9 -14 10 -14 11 -1 0 8 5 20 11 26
9 9 17 2 32 -25 19 -35 20 -52 19 -302 -1 -145 -5 -273 -8 -283 -5 -15 -12
-17 -32 -12 -95 26 -92 26 -92 -11 0 -30 3 -34 25 -34 15 0 25 -6 25 -14 0
-19 -17 -29 -25 -16 -11 18 -25 10 -25 -15 0 -19 6 -25 34 -30 18 -4 44 -5 57
-3 19 2 24 -1 23 -19 -3 -116 -3 -113 -29 -113 -22 0 -24 2 -15 26 16 40 13
44 -30 44 l-40 0 0 -104 0 -104 64 0 c61 0 65 1 74 26 l9 27 7 -28 7 -29 125
3 c82 2 128 7 135 15 7 8 7 14 0 19 -7 4 -7 12 -2 23 5 9 12 25 15 34 3 11 15
18 31 18 22 0 25 -4 25 -36 0 -19 -4 -33 -8 -30 -14 9 -33 -10 -26 -27 5 -15
24 -17 141 -17 l135 0 -4 53 c-3 47 -1 52 18 53 15 1 21 -3 18 -15 -1 -9 -5
-33 -8 -54 l-5 -37 288 0 287 0 -2 50 c-2 27 -6 55 -10 62 -5 8 -2 9 10 5 10
-4 21 -7 24 -7 4 0 6 -24 4 -53 l-4 -54 199 1 198 1 -3 23 c-3 20 0 22 21 17
14 -4 28 -2 31 4 11 18 26 13 26 -9 0 -14 -5 -18 -16 -13 -12 4 -15 2 -12 -8
3 -9 24 -15 61 -17 53 -3 57 -2 57 18 0 16 -4 20 -19 15 -12 -3 -21 0 -24 10
-5 11 0 14 16 12 19 -2 22 3 21 31 -1 21 3 32 12 32 9 0 14 11 14 29 0 20 6
30 20 34 17 4 20 0 20 -24 0 -19 -5 -29 -15 -29 -8 0 -15 -1 -16 -2 0 -2 -3
-29 -5 -61 -6 -70 -6 -69 120 -71 91 -1 92 -1 88 22 -3 13 1 22 8 22 7 0 9 8
5 20 -5 14 -2 20 9 20 12 0 16 -10 16 -40 0 -22 5 -40 10 -40 6 0 10 7 10 15
0 8 5 15 11 15 7 0 10 17 7 44 -2 35 0 44 12 43 20 -1 14 -78 -6 -90 -30 -17
1 -27 87 -27 l89 0 0 59 c0 55 2 59 23 59 23 0 23 -2 14 -55 -5 -30 -7 -56 -5
-58 2 -2 83 -5 180 -7 137 -2 174 0 171 10 -3 6 1 12 9 12 16 0 16 -3 -2 -155
-7 -55 -16 -104 -21 -109 -5 -6 -9 -27 -9 -47 0 -21 -3 -44 -6 -53 -6 -14
-136 -16 -1380 -16 -909 0 -1374 -3 -1374 -10 0 -7 2160 -10 6460 -10 4300 0
6460 3 6460 10 0 7 -463 10 -1370 10 l-1370 0 0 39 c0 22 -4 42 -9 45 -5 3
-12 53 -16 111 -4 58 -11 108 -16 111 -10 6 -12 64 -3 87 4 12 38 14 207 10
519 -9 607 -9 607 4 0 7 -7 10 -17 7 -14 -5 -15 -4 -4 4 7 5 10 15 7 21 -5 7
5 11 28 11 19 0 36 3 39 8 2 4 2 1 1 -5 -3 -10 28 -12 131 -10 100 1 135 5
135 15 0 17 29 15 36 -3 9 -21 34 -19 34 4 0 21 23 45 33 34 4 -3 7 -17 7 -31
0 -21 2 -22 15 -12 8 7 15 8 15 3 0 -19 44 -29 89 -22 26 4 62 6 81 4 19 -2
52 -4 74 -4 33 -1 37 -3 26 -16 -10 -12 -10 -16 1 -19 25 -8 50 -3 45 9 -10
26 41 37 185 38 140 2 145 1 179 -24 37 -27 172 -65 191 -54 13 9 -33 37 -99
60 -21 7 -4 25 24 25 19 0 24 5 24 26 0 33 16 23 24 -16 7 -37 30 -48 54 -27
9 9 20 16 24 17 4 0 15 3 23 6 8 4 22 1 30 -6 8 -6 27 -11 42 -10 46 3 51 1
57 -25 4 -16 13 -25 25 -25 10 0 38 -9 62 -20 47 -21 179 -29 179 -10 0 6 -13
10 -30 10 -16 0 -30 5 -30 11 0 8 11 9 33 5 l32 -6 -24 20 c-13 11 -17 20 -10
20 7 0 21 8 31 17 17 15 18 15 13 1 -5 -12 0 -17 17 -20 13 -2 23 -10 23 -18
0 -22 24 -36 73 -43 32 -4 42 -2 42 9 0 8 -4 14 -9 14 -11 0 -24 31 -16 39 3
3 10 -1 15 -9 6 -10 9 28 9 107 0 120 -1 121 -25 127 -13 4 -24 13 -24 21 0
11 -11 15 -40 15 -31 0 -40 -4 -40 -17 0 -14 -8 -18 -37 -17 -35 1 -38 4 -35
27 2 18 -4 29 -18 37 -25 13 -26 40 -2 40 9 1 42 2 72 4 34 2 58 -1 62 -8 12
-18 62 19 69 51 l6 28 5 -30 c3 -16 6 85 7 227 1 252 1 256 -19 251 -11 -3
-20 -9 -20 -14 0 -5 -10 -8 -22 -6 -23 2 -25 -3 -12 -37 6 -15 3 -17 -13 -12
-11 4 -27 4 -36 1 -27 -11 -44 -103 -20 -112 19 -7 16 -40 -4 -52 -17 -9 -17
-11 2 -26 20 -16 20 -16 -2 -12 -19 4 -23 1 -23 -19 0 -22 -4 -24 -49 -24 -28
0 -52 -4 -55 -9 -7 -10 -154 -27 -162 -18 -6 6 8 27 39 55 19 18 23 47 7 57
-15 10 -12 35 5 35 8 0 15 5 15 10 0 6 -6 10 -14 10 -8 0 -27 5 -43 12 -15 6
-38 10 -50 9 -13 -1 -23 3 -23 9 0 6 5 8 10 5 18 -11 48 5 54 28 8 32 -10 44
-34 22 -19 -17 -21 -17 -33 -1 -10 13 -20 16 -41 10 -29 -7 -30 -17 -11 -69 5
-14 4 -16 -3 -7 -5 8 -22 12 -38 10 -28 -3 -29 -4 -29 -63 -1 -58 10 -85 34
-85 6 0 11 -8 11 -17 1 -10 14 -34 30 -53 26 -30 30 -42 30 -97 0 -49 -3 -63
-15 -63 -8 0 -15 7 -15 16 0 8 -7 22 -15 30 -8 9 -15 24 -15 35 0 12 -7 19
-18 19 -26 0 -33 10 -22 30 8 14 4 20 -20 30 -17 7 -34 19 -39 28 -6 11 -11 6
-21 -22 -13 -40 -18 -42 -45 -22 -20 15 -59 10 -48 -7 3 -5 -2 -16 -12 -23
-25 -19 -15 -26 39 -26 25 0 48 -4 52 -9 3 -5 10 -6 16 -3 6 4 14 0 19 -7 14
-22 10 -32 -8 -24 -10 4 -36 9 -58 11 -90 8 -137 14 -145 19 -4 2 -6 26 -5 52
4 62 4 61 16 41 17 -29 28 -20 26 20 -2 30 1 36 16 34 9 -2 20 4 23 13 9 23
-24 103 -46 110 -12 4 -17 12 -13 22 3 8 2 18 -3 22 -5 3 -14 15 -21 26 -6 11
-17 18 -25 16 -7 -2 -21 -6 -32 -9 -16 -4 -17 -1 -11 26 10 46 -1 54 -40 32
l-35 -19 -11 22 c-7 12 -15 24 -18 27 -3 3 -12 17 -20 33 -10 19 -22 27 -41
27 -15 0 -38 9 -52 19 -40 32 -74 36 -88 11 -7 -14 -17 -19 -29 -15 -19 6 -33
-6 -96 -80 -14 -16 -23 -22 -19 -12 5 13 1 17 -16 17 -12 0 -28 7 -36 15 -22
21 -33 19 -44 -10 -9 -23 -11 -23 -36 -10 -15 7 -40 12 -56 10 -23 -3 -31 1
-40 21 -8 17 -18 24 -30 21 -10 -3 -21 -1 -24 4 -3 5 -22 9 -43 9 -24 0 -44 6
-52 17 -8 10 -9 14 -2 10 7 -4 18 2 27 15 22 31 20 38 -8 38 -28 0 -39 21 -26
52 8 22 9 22 9 2 1 -23 19 -44 38 -44 17 0 17 32 1 48 -10 10 -10 15 2 22 8 5
23 10 32 10 11 0 15 5 12 15 -4 9 -12 14 -19 13 -8 -2 -13 0 -12 3 5 17 -39
50 -60 46 -13 -2 -26 0 -29 4 -9 16 -30 10 -59 -16 -28 -27 -85 -45 -85 -28 0
19 -123 -1 -141 -23 -18 -22 -48 -18 -42 6 3 11 12 20 19 20 8 0 14 5 14 10 0
6 8 10 17 10 14 0 12 4 -7 25 -23 25 -21 29 12 26 22 -3 32 33 17 61 -15 29
-28 38 -55 38 -24 0 -39 36 -24 55 5 6 6 15 2 21 -11 17 -67 25 -81 11 -8 -8
-11 -2 -11 27 0 30 -3 36 -12 28 -7 -5 -27 -13 -44 -16 -24 -6 -33 -3 -38 10
-6 16 -21 12 -21 -7 0 -10 -12 -11 -38 -3 -11 4 -16 12 -13 21 3 8 6 26 6 40
0 25 0 26 20 8 18 -16 20 -16 20 -2 0 9 6 20 14 24 8 4 16 22 18 38 2 21 8 30
21 29 12 -1 17 6 17 27 0 21 -5 29 -17 30 -26 2 -26 2 -50 -6 -33 -9 -31 29 2
51 25 16 26 38 1 28 -8 -3 -20 1 -27 9 -10 11 -21 12 -38 6 -19 -8 -27 -5 -37
9 -12 17 -18 18 -59 9 -34 -8 -42 -13 -31 -19 9 -5 16 -16 16 -24 0 -11 -9
-13 -38 -8 -30 5 -41 2 -56 -15 -23 -25 -15 -52 13 -44 27 7 26 0 -4 -44 -13
-20 -23 -38 -22 -39 1 0 19 1 39 3 45 6 77 45 57 69 -9 11 -8 14 5 14 9 0 16
-4 16 -10 0 -5 8 -10 18 -10 11 0 13 -3 5 -8 -6 -4 -16 -20 -22 -35 -7 -19
-18 -27 -34 -27 -17 0 -27 -9 -38 -32 -13 -32 -16 -33 -62 -30 -54 4 -77 -9
-70 -41 4 -21 4 -22 -11 -3 -9 11 -16 23 -16 27 0 12 57 49 64 42 3 -3 6 3 6
14 0 12 6 24 13 27 21 8 -23 36 -59 36 -27 0 -36 -6 -58 -45 -15 -25 -29 -45
-31 -45 -3 0 -2 32 1 70 6 63 5 70 -10 64 -12 -5 -16 -20 -16 -63 0 -37 -3
-51 -9 -42 -5 8 -7 19 -5 26 3 6 -11 29 -30 50 -29 33 -37 37 -45 25 -7 -9 -6
-19 1 -28 15 -18 -6 -32 -49 -32 -46 0 -52 -19 -15 -50 35 -29 33 -43 -4 -34
-16 4 -24 1 -29 -15 -9 -28 -31 -27 -39 3 -6 26 -43 41 -63 25 -7 -7 -10 -22
-6 -40 3 -18 1 -29 -6 -29 -7 0 -11 34 -11 105 l0 106 -27 -3 c-27 -3 -28 -4
-33 -83 -5 -74 -7 -80 -27 -83 -13 -2 -23 1 -23 7 0 6 5 11 10 11 6 0 10 7 10
16 0 13 -8 15 -35 12 -23 -3 -36 1 -40 10 -3 7 -9 11 -14 8 -5 -3 -14 1 -21 9
-7 8 -18 15 -25 15 -6 0 -17 11 -23 25 -7 14 -20 25 -31 25 -10 0 -24 7 -31
15 -7 8 -17 15 -22 15 -5 0 -29 16 -52 35 -24 19 -48 35 -54 35 -6 0 -12 3
-14 8 -5 12 -85 72 -96 72 -6 0 -15 6 -19 12 -10 16 -57 48 -108 73 -22 11
-41 23 -43 28 -2 4 -8 7 -14 7 -13 0 -101 42 -108 52 -3 3 -18 10 -33 13 -15
4 -27 11 -27 15 0 5 -13 11 -30 15 -16 4 -30 11 -30 16 0 5 -5 9 -11 9 -17 0
-87 33 -393 186 -159 79 -294 144 -300 144 -6 0 -114 52 -240 115 -126 63
-235 115 -242 115 -7 0 -42 34 -79 75 -37 41 -73 75 -80 75 -8 0 -26 6 -42 14
-46 24 -100 46 -112 46 -6 0 -11 11 -11 25 0 14 -4 25 -9 25 -5 0 -13 15 -16
33 -4 17 -12 38 -19 46 -14 18 -22 476 -7 505 5 12 12 41 14 64 4 32 16 57 46
92 23 27 41 52 41 55 0 4 14 24 30 45 17 21 30 41 30 45 0 4 14 24 30 45 17
21 30 42 30 48 0 5 8 20 19 33 10 13 23 44 29 69 23 96 34 136 42 151 4 8 11
46 15 82 4 37 11 70 16 73 5 3 9 20 9 38 0 19 7 39 15 46 10 9 15 9 15 1 0 -6
5 -11 10 -11 6 0 24 -9 39 -21 23 -17 37 -20 70 -14 22 4 43 10 46 15 3 4 21
11 40 14 19 4 35 11 35 16 0 6 5 10 11 10 14 0 79 65 79 78 0 5 12 19 26 33
15 13 33 38 40 54 17 36 36 68 46 75 3 3 10 18 13 33 4 15 11 27 15 27 5 0 11
14 15 30 4 16 11 30 16 30 5 0 9 7 9 16 0 14 19 61 50 124 4 9 11 30 15 49 4
18 13 44 21 59 8 15 14 34 14 42 0 9 5 21 10 26 6 6 13 54 17 107 3 53 10 97
15 97 4 0 8 11 8 25 0 16 -14 39 -40 64 -22 21 -40 43 -40 48 0 20 -36 41 -82
47 -45 7 -48 9 -48 36 0 16 5 32 10 35 13 8 13 42 0 47 -5 2 -12 29 -16 61 -7
57 -7 57 20 57 62 0 66 8 66 149 0 102 3 131 15 141 8 7 15 18 15 25 0 6 9 20
19 29 11 10 21 30 23 45 2 19 14 32 43 47 22 11 42 29 44 40 2 10 7 24 11 29
4 6 11 34 15 62 4 29 11 55 16 59 12 7 12 81 0 88 -5 3 -12 30 -16 61 -3 30
-11 57 -16 60 -5 4 -9 14 -9 25 0 10 -10 38 -22 62 -26 49 -27 51 -66 98 -25
29 -30 47 -36 113 -4 44 -11 86 -16 95 -5 10 -12 38 -15 63 -4 31 -14 54 -30
69 -14 13 -25 28 -25 35 0 6 -9 18 -20 28 -12 10 -20 29 -20 46 0 17 -4 32 -9
35 -5 3 -12 44 -16 91 -4 47 -11 87 -16 91 -5 3 -9 13 -9 22 -1 21 -29 56 -54
65 -16 6 -17 14 -11 55 4 26 12 50 18 54 9 6 9 12 -1 25 -7 10 -15 26 -18 36
-4 9 -10 17 -15 17 -5 0 -9 5 -9 10 0 9 -35 65 -50 80 -7 7 -28 41 -42 68 -6
12 -21 22 -32 22 -12 0 -30 6 -41 14 -11 7 -35 17 -52 21 -18 3 -33 11 -33 16
0 5 -10 9 -23 9 -13 0 -32 7 -43 15 -10 8 -27 15 -36 15 -10 0 -18 7 -18 16 0
9 -17 36 -37 59 -21 23 -49 56 -63 73 -14 17 -32 31 -40 32 -8 0 -27 6 -42 14
-15 8 -42 17 -60 21 -18 4 -42 14 -53 21 -11 8 -30 14 -42 14 -13 0 -23 5 -23
10 0 6 -8 10 -17 10 -10 0 -31 7 -48 16 -35 20 -127 23 -133 6 -2 -7 -14 -12
-26 -12 -12 0 -30 -6 -41 -14 -11 -7 -36 -17 -55 -21 -19 -4 -42 -13 -52 -19
-15 -9 -26 -2 -72 45 -39 40 -65 59 -90 63 -20 4 -36 11 -36 16 0 4 -13 11
-30 15 -16 4 -30 10 -30 15 0 5 -13 11 -30 15 -16 4 -30 11 -30 16 0 5 -18 9
-40 9 -22 0 -40 -4 -40 -9z m-760 -2772 c0 -5 6 -9 13 -9 12 0 19 -7 56 -53
22 -27 -2 -44 -72 -52 -34 -4 -68 -12 -74 -17 -7 -6 -20 -7 -29 -4 -15 6 -15
8 -2 24 26 29 48 80 48 111 0 29 1 30 30 20 17 -6 30 -15 30 -20z m-385 -78
c3 -6 -1 -11 -9 -11 -8 0 -17 4 -21 9 -3 5 -18 12 -34 16 -26 6 -28 8 -17 31
6 13 21 27 34 30 12 4 23 11 23 18 1 6 5 -10 9 -36 5 -26 11 -52 15 -57z m94
90 c21 -13 5 -41 -24 -41 -38 0 -33 44 5 49 3 0 11 -3 19 -8z m1705 -35 c55
-37 64 -49 55 -74 -5 -12 -15 -22 -23 -22 -8 0 -16 -4 -18 -9 -1 -5 -31 -12
-65 -16 l-61 -7 13 49 c7 26 16 60 19 76 8 34 33 35 80 3z m-913 -43 c1 -32 0
-62 -1 -68 -2 -5 -3 -19 -2 -30 1 -34 -8 -65 -18 -65 -11 0 -14 160 -4 198 11
41 24 23 25 -35z m546 15 c-3 -8 -6 -5 -6 6 -1 11 2 17 5 13 3 -3 4 -12 1 -19z
m-54 -15 c3 -16 9 -36 13 -47 7 -17 4 -18 -42 -11 -27 4 -51 9 -53 11 -5 5 60
74 70 74 3 0 9 -12 12 -27z m-1753 -120 c0 -107 -15 -153 -58 -181 l-23 -15 6
54 c11 97 48 239 62 239 10 0 13 -24 13 -97z m1943 -197 c31 -8 57 -12 57 -10
0 3 4 2 10 -1 16 -10 -20 -55 -44 -55 -23 0 -66 33 -66 50 0 5 -7 7 -15 4 -8
-4 -15 -1 -15 4 0 6 -8 13 -17 15 -46 12 38 5 90 -7z m-904 -68 c-1 -46 -23
-103 -40 -104 -34 -2 -39 -5 -39 -18 0 -7 -7 -20 -16 -27 -15 -12 -16 -11 -9
11 4 14 14 37 21 52 8 15 14 34 14 42 0 17 47 76 61 76 5 0 9 -15 8 -32z
m4446 -3378 c3 -5 1 -10 -4 -10 -6 0 -11 5 -11 10 0 6 2 10 4 10 3 0 8 -4 11
-10z m132 -52 c18 -7 33 -18 33 -25 0 -18 -19 -16 -26 2 -4 8 -12 15 -20 15
-17 0 -18 -17 -1 -23 6 -2 9 -8 5 -12 -14 -14 -38 5 -38 30 0 29 2 29 47 13z
m-781 -126 c-14 -13 -23 15 -18 53 l6 40 9 -43 c4 -24 6 -46 3 -50z m594 -78
c7 -19 9 -42 5 -52 -5 -15 -9 -14 -25 8 -20 26 -24 47 -14 74 9 22 21 12 34
-30z m-650 -15 c0 -11 -4 -18 -10 -14 -5 3 -7 12 -3 20 7 21 13 19 13 -6z
m738 -35 c3 -18 -33 -63 -42 -53 -14 16 -15 49 0 63 20 21 38 16 42 -10z
m-133 -6 c-1 -13 -4 -29 -6 -37 -6 -22 19 -24 26 -2 3 12 11 21 17 21 6 0 8
-8 5 -17 -24 -74 -33 -93 -43 -89 -31 12 -82 -82 -54 -99 6 -3 10 -24 10 -46
0 -29 -5 -41 -17 -45 -10 -3 -30 -12 -44 -19 -19 -11 -29 -11 -37 -3 -8 8 -15
8 -27 -2 -24 -20 -30 -4 -16 49 6 26 11 54 9 62 -2 10 6 13 31 11 27 -2 32 1
27 14 -6 17 12 60 21 50 11 -11 43 27 43 50 0 34 10 53 24 48 9 -3 13 3 13 18
1 46 3 58 12 58 5 0 8 -10 6 -22z m-9555 -140 l0 -42 -20 22 c-12 12 -25 22
-30 22 -6 0 -10 7 -10 15 0 18 16 20 26 4 5 -8 10 -6 16 5 14 25 18 19 18 -26z
m195 -28 c3 -5 1 -10 -4 -10 -6 0 -11 5 -11 10 0 6 2 10 4 10 3 0 8 -4 11 -10z
m-707 -54 c-8 -6 -17 -18 -21 -26 -4 -11 -6 -9 -6 6 -1 24 18 46 32 37 6 -4 4
-10 -5 -17z m737 -36 c3 -5 1 -10 -4 -10 -6 0 -11 5 -11 10 0 6 2 10 4 10 3 0
8 -4 11 -10z m-842 -60 c-7 -8 -42 44 -36 53 3 5 13 -4 23 -20 9 -15 15 -30
13 -33z m83 17 c8 3 14 0 14 -6 0 -17 -29 -26 -42 -13 -6 6 -7 18 -3 29 7 16
8 16 12 1 3 -10 10 -15 19 -11z m10548 6 c4 -5 12 -9 17 -9 5 -1 14 -2 19 -3
16 -2 12 -48 -5 -55 -25 -9 -17 -24 10 -18 22 4 25 1 25 -22 0 -16 6 -26 14
-26 14 0 26 -21 26 -47 0 -8 12 -29 26 -46 20 -24 33 -31 54 -29 36 4 43 -9
43 -77 0 -54 1 -55 4 -8 l4 48 37 -7 c45 -8 49 -11 34 -26 -21 -21 -14 -45 12
-45 15 0 29 10 41 29 9 16 19 27 23 24 3 -3 11 -1 19 5 10 9 13 8 13 -1 0 -7
-7 -18 -17 -25 -9 -7 -20 -35 -25 -66 -15 -97 -14 -113 7 -106 8 4 17 2 20 -4
4 -5 -1 -12 -9 -15 -10 -4 -16 -19 -17 -43 0 -55 -13 -114 -24 -114 -14 -1
-22 45 -26 148 -2 68 -4 76 -6 35 -5 -78 -12 -92 -26 -51 -7 19 -19 35 -27 37
-8 1 -23 5 -32 9 -13 5 -18 2 -18 -11 0 -9 -7 -26 -16 -35 -13 -15 -15 -24 -6
-46 17 -44 13 -83 -9 -83 -17 0 -19 9 -20 73 -1 54 -3 65 -9 45 -5 -16 -8 -64
-8 -108 0 -45 -2 -83 -5 -87 -3 -3 -17 -3 -31 1 -17 4 -23 11 -20 21 4 9 0 15
-10 15 -19 0 -22 26 -3 33 6 3 2 6 -10 6 -27 1 -28 9 -8 38 13 18 13 22 1 26
-9 4 -12 14 -9 28 4 15 3 20 -5 15 -7 -4 -15 0 -18 8 -7 18 -46 21 -76 5 -12
-6 -38 -8 -64 -4 l-44 6 0 42 c1 23 6 62 11 87 6 25 11 59 12 77 1 18 8 38 15
44 6 7 12 26 12 42 0 17 8 36 18 43 16 13 16 14 -4 20 -33 9 -22 81 17 112 16
13 29 29 29 36 0 16 23 66 31 66 3 0 9 -3 13 -7z m-7812 -25 c-9 -9 -42 -1
-42 12 0 4 12 5 26 2 15 -3 22 -8 16 -14z m7588 -46 c0 -7 11 -17 25 -22 15
-6 25 -17 25 -30 0 -23 -28 -27 -36 -6 -3 8 -12 12 -20 9 -9 -3 -14 2 -14 14
0 26 -10 35 -25 23 -21 -18 -27 19 -7 45 l17 24 17 -22 c10 -12 18 -28 18 -35z
m-586 23 c15 -8 32 -12 37 -9 5 3 9 -8 9 -25 0 -35 -19 -52 -27 -23 -5 22 -25
20 -54 -5 -14 -12 -18 -10 -33 21 -20 43 -20 44 7 49 12 2 24 5 27 6 3 0 18
-6 34 -14z m116 -29 c0 -26 -15 -43 -24 -28 -7 12 4 52 15 52 5 0 9 -11 9 -24z
m800 -6 c-24 -15 -37 -11 -16 5 11 8 22 12 25 9 3 -3 -1 -9 -9 -14z m-535 0
c3 -5 -1 -10 -10 -10 -9 0 -13 5 -10 10 3 6 8 10 10 10 2 0 7 -4 10 -10z
m-7713 -32 c-7 -7 -12 -8 -12 -2 0 14 12 26 19 19 2 -3 -1 -11 -7 -17z m-92
-17 c0 -31 -45 -74 -69 -66 -26 8 -27 22 -3 29 11 4 29 18 42 31 28 30 30 30
30 6z m8553 -34 c-3 -5 -10 -4 -15 1 -6 6 -7 16 -3 22 6 9 9 9 16 -1 4 -7 5
-17 2 -22z m-9816 -69 c-3 -8 -6 -5 -6 6 -1 11 2 17 5 13 3 -3 4 -12 1 -19z
m1253 -29 c0 -5 -7 -9 -15 -9 -9 0 -12 6 -9 15 6 15 24 11 24 -6z m9245 -28
c3 -5 1 -12 -5 -16 -5 -3 -10 1 -10 9 0 18 6 21 15 7z m-9196 -36 c6 -7 6 -99
0 -270 -12 -311 -11 -301 -25 -315 -15 -15 -60 -8 -56 9 1 7 -2 19 -8 26 -6 7
-8 20 -4 29 4 9 1 16 -6 16 -9 0 -11 11 -6 40 4 25 2 40 -4 40 -16 0 -12 119
4 136 8 7 12 22 9 33 -3 13 2 21 15 25 22 7 42 83 25 95 -6 3 -15 16 -21 28
-9 16 -9 22 1 26 9 3 9 9 1 24 -7 11 -10 30 -7 44 4 20 10 24 38 24 19 0 38
-4 44 -10z m9055 -20 c-4 -8 -11 -15 -16 -15 -6 0 -5 6 2 15 7 8 14 15 16 15
2 0 1 -7 -2 -15z m-10438 -41 c4 -14 1 -51 -5 -81 -6 -31 -11 -73 -11 -93 0
-20 -3 -40 -7 -44 -4 -4 -8 -15 -8 -24 -1 -9 -2 -31 -3 -49 -2 -24 -6 -31 -17
-27 -8 4 -15 1 -15 -5 0 -13 -10 -14 -30 -1 -12 7 -12 12 -2 22 6 6 12 22 12
35 0 14 6 23 15 23 8 0 15 4 15 10 0 5 -7 7 -15 4 -13 -5 -15 8 -15 81 0 88 7
113 43 153 26 29 35 28 43 -4z m8874 -3 c0 -55 -13 -151 -21 -151 -4 0 -10 18
-14 40 -4 22 -11 42 -16 46 -11 7 -12 44 -1 44 5 0 14 11 20 25 15 34 32 32
32 -4z m2356 14 c2 -5 -5 -21 -16 -35 l-20 -25 0 38 c0 31 3 38 17 35 9 -2 18
-7 19 -13z m-801 -7 c26 -12 32 -23 16 -33 -5 -3 -22 6 -38 20 -30 26 -20 32
22 13z m-1505 -56 c5 -20 10 -67 10 -103 0 -58 -3 -67 -20 -72 -11 -3 -23 -1
-26 5 -9 15 7 219 17 213 4 -3 13 -22 19 -43z m-9102 11 c16 -36 15 -85 -3
-109 -13 -16 -16 -17 -26 -4 -8 11 -12 12 -16 3 -6 -15 -33 -17 -33 -3 0 6 12
29 26 52 15 23 27 52 28 65 1 30 8 29 24 -4z m9587 -140 c-3 -24 -11 -43 -17
-43 -12 0 -5 134 9 180 11 34 17 -78 8 -137z m-9515 46 c0 -76 -3 -100 -12
-97 -8 3 -14 27 -15 64 -1 32 -4 75 -6 94 -4 30 -1 36 14 37 17 2 19 -7 19
-98z m10486 87 c10 -11 11 -15 1 -19 -9 -3 -9 -8 2 -20 16 -20 11 -21 -24 -5
-16 7 -24 17 -20 26 3 7 5 18 5 23 0 14 20 11 36 -5z m-1326 -119 c0 -76 -1
-78 -22 -75 -28 4 -33 28 -23 115 6 58 8 61 26 50 16 -10 19 -24 19 -90z
m1555 83 c3 -5 1 -10 -4 -10 -6 0 -11 5 -11 10 0 6 2 10 4 10 3 0 8 -4 11 -10z
m-1474 -27 c5 -15 9 -50 7 -77 -3 -47 -5 -51 -30 -54 l-28 -3 0 74 c0 40 3 77
7 80 14 15 34 6 44 -20z m1450 10 c1 -10 0 -31 -1 -47 -1 -15 2 -26 7 -23 4 2
17 1 28 -4 16 -6 13 -8 -15 -8 -39 -1 -80 22 -80 45 0 41 59 77 61 37z m-233
-5 c17 -17 15 -26 -8 -33 -11 -3 -20 -14 -20 -23 0 -10 -9 -23 -20 -30 -20
-12 -21 -12 -5 17 8 17 15 38 15 49 0 32 17 41 38 20z m82 2 c0 -5 -4 -10 -10
-10 -5 0 -10 5 -10 10 0 6 5 10 10 10 6 0 10 -4 10 -10z m1250 -5 c0 -8 -7
-15 -15 -15 -9 0 -12 6 -9 15 4 8 10 15 15 15 5 0 9 -7 9 -15z m-2313 -51 c-6
-61 -17 -80 -40 -71 -9 3 -14 24 -16 62 -2 53 -1 56 18 50 12 -4 21 -2 21 4 0
6 5 11 11 11 8 0 10 -17 6 -56z m-7664 -64 c-3 -47 -9 -89 -14 -94 -5 -6 -9
-36 -9 -67 0 -32 -5 -70 -11 -86 -7 -15 -11 -43 -10 -60 1 -18 -3 -33 -9 -33
-5 0 -10 7 -10 15 0 8 -9 15 -19 15 -29 0 -33 26 -20 142 10 89 15 107 31 111
10 3 18 12 18 20 0 8 11 35 24 60 15 27 23 55 19 69 -4 18 -3 20 6 8 7 -9 8
-46 4 -100z m8775 98 c16 -16 15 -38 -2 -38 -18 0 -39 27 -31 40 8 13 18 13
33 -2z m-1198 -54 c0 -52 -1 -55 -22 -52 -19 3 -23 9 -22 40 1 37 17 68 35 68
5 0 9 -25 9 -56z m1346 29 c-10 -10 -19 5 -10 18 6 11 8 11 12 0 2 -7 1 -15
-2 -18z m-10950 -17 c2 -11 4 -61 2 -111 -2 -72 -6 -90 -18 -90 -12 0 -16 21
-20 113 -3 63 -3 115 -2 117 9 9 33 -9 38 -29z m1417 -50 c13 1 17 -6 17 -32
0 -39 -9 -42 -64 -19 -32 13 -37 20 -34 43 2 19 9 27 23 27 14 0 21 8 24 25 4
22 5 21 10 -10 5 -25 11 -35 24 -34z m-1337 9 c-4 -15 -2 -25 4 -25 6 0 8 -4
5 -10 -13 -21 -25 -9 -25 25 0 19 5 35 11 35 7 0 9 -10 5 -25z m251 3 c-3 -8
-6 -5 -6 6 -1 11 2 17 5 13 3 -3 4 -12 1 -19z m-192 -19 c-4 -32 -11 -46 -20
-37 -8 7 6 68 16 68 4 0 6 -14 4 -31z m10165 11 c0 -11 -4 -20 -10 -20 -5 0
-10 9 -10 20 0 11 5 20 10 20 6 0 10 -9 10 -20z m1304 -21 c3 -17 6 -44 6 -60
0 -16 5 -29 11 -29 6 0 3 -7 -5 -16 -19 -19 -20 -25 -3 -18 8 3 13 -3 13 -16
0 -15 -5 -19 -16 -13 -8 4 -30 6 -47 6 -18 -1 -33 2 -33 6 0 17 38 41 54 35 9
-3 16 -1 16 5 0 6 -7 11 -15 11 -12 0 -15 13 -15 60 0 44 4 60 14 60 7 0 16
-14 20 -31z m-1469 -9 c-5 -16 -2 -20 14 -20 12 0 21 -4 21 -10 0 -16 -37 -11
-44 6 -9 24 -7 44 5 44 6 0 8 -9 4 -20z m-9936 -4 c11 -14 5 -72 -9 -81 -5 -3
-10 18 -12 45 -3 52 1 60 21 36z m9711 -21 c0 -28 -19 -35 -21 -7 -1 9 -5 4
-9 -13 -8 -30 -8 -30 -9 8 -1 31 2 37 19 37 15 0 20 -7 20 -25z m-9580 1 c0
-8 -4 -18 -10 -21 -5 -3 -10 -22 -10 -41 0 -19 -4 -34 -9 -34 -8 0 -5 66 5 98
5 17 24 15 24 -2z m10850 -6 c0 -5 -7 -10 -15 -10 -8 0 -15 5 -15 10 0 6 7 10
15 10 8 0 15 -4 15 -10z m285 0 c17 -7 15 -9 -12 -9 -18 -1 -33 4 -33 9 0 12
17 12 45 0z m385 -6 c0 -8 -5 -12 -10 -9 -6 4 -8 11 -5 16 9 14 15 11 15 -7z
m-11720 -33 c0 -46 -15 -62 -26 -29 l-8 23 -5 -23 c-9 -36 -26 -26 -26 16 0
29 4 37 18 36 9 -1 17 2 17 7 0 5 7 9 15 9 11 0 15 -11 15 -39z m10520 14 c0
-10 -9 -15 -27 -14 -24 2 -25 2 -5 6 12 2 22 9 22 14 0 5 2 9 5 9 3 0 5 -7 5
-15z m-9200 -26 c0 -24 -6 -26 -93 -33 -54 -4 -69 -2 -74 9 -13 35 4 43 86 43
74 0 81 -1 81 -19z m9474 6 c3 -8 1 -15 -4 -15 -6 0 -10 7 -10 15 0 8 2 15 4
15 2 0 6 -7 10 -15z m-654 -23 c0 -36 -9 -45 -26 -27 -24 24 -15 51 19 54 4 1
7 -12 7 -27z m735 18 c3 -5 -1 -10 -10 -10 -9 0 -13 5 -10 10 3 6 8 10 10 10
2 0 7 -4 10 -10z m344 1 c16 -10 6 -31 -14 -31 -17 0 -28 17 -20 30 8 12 16
12 34 1z m-9849 -27 c0 -14 -12 -19 -23 -8 -9 9 4 35 14 28 5 -3 9 -12 9 -20z
m8437 20 c-3 -3 -12 -4 -19 -1 -8 3 -5 6 6 6 11 1 17 -2 13 -5z m163 -24 c0
-16 -4 -30 -10 -30 -5 0 -10 14 -10 30 0 17 5 30 10 30 6 0 10 -13 10 -30z
m64 23 c4 -5 13 -8 19 -8 7 0 12 -6 11 -12 -1 -7 -2 -24 -2 -38 -1 -15 -8 -25
-17 -25 -18 0 -20 20 -2 21 6 1 1 4 -13 8 -18 5 -26 15 -28 34 -3 26 15 37 32
20z m1496 -2 c0 -5 14 -4 30 2 26 10 33 9 52 -10 19 -20 20 -25 9 -47 -18 -32
-64 -39 -86 -13 -9 10 -14 26 -11 34 4 9 1 22 -5 29 -8 10 -8 14 0 14 6 0 11
-4 11 -9z m-10840 -16 c11 -13 6 -15 -39 -15 -31 0 -50 4 -46 10 3 5 12 7 19
4 8 -3 17 -1 21 5 9 16 30 14 45 -4z m738 -3 c2 -7 -3 -12 -12 -12 -9 0 -16 7
-16 16 0 17 22 14 28 -4z m8890 -50 c-13 -28 -28 -52 -34 -52 -18 0 -38 79
-24 95 12 15 60 24 73 15 4 -4 -3 -30 -15 -58z m72 54 c0 -18 -16 -29 -30 -21
-13 8 -1 35 16 35 8 0 14 -6 14 -14z m-10965 -6 c3 -5 1 -10 -4 -10 -6 0 -11
5 -11 10 0 6 2 10 4 10 3 0 8 -4 11 -10z m700 0 c4 -6 -5 -10 -20 -10 -15 0
-24 4 -20 10 3 6 12 10 20 10 8 0 17 -4 20 -10z m625 0 c0 -5 -7 -10 -15 -10
-8 0 -15 5 -15 10 0 6 7 10 15 10 8 0 15 -4 15 -10z m-1270 -10 c0 -5 -4 -10
-10 -10 -5 0 -10 5 -10 10 0 6 5 10 10 10 6 0 10 -4 10 -10z m12190 0 c8 -5
11 -12 7 -16 -4 -4 -15 0 -24 9 -18 18 -8 23 17 7z m-350 -15 c0 -8 5 -15 10
-15 16 0 12 -20 -5 -26 -8 -4 -31 -3 -50 0 -29 6 -35 11 -35 31 0 22 4 25 40
25 29 0 40 -4 40 -15z m-1145 -17 c46 -3 50 -5 53 -30 2 -15 -2 -37 -8 -48 -9
-17 -8 -25 4 -39 29 -32 19 -41 -41 -41 -85 0 -115 30 -43 43 22 4 21 4 -6 6
-18 0 -34 8 -38 16 -4 12 3 15 34 15 28 0 40 -4 40 -14 0 -8 5 -18 11 -22 8
-4 9 0 4 15 -5 15 -2 21 9 21 19 0 19 1 6 36 -10 25 -14 26 -54 21 -35 -5 -45
-3 -50 9 -8 22 3 37 18 25 6 -5 34 -11 61 -13z m670 -51 c9 -72 4 -101 -18
-105 -17 -3 -19 2 -16 50 2 29 0 59 -5 66 -11 17 0 42 18 42 10 0 17 -16 21
-53z m625 43 c0 -5 -2 -10 -4 -10 -3 0 -8 5 -11 10 -3 6 -1 10 4 10 6 0 11 -4
11 -10z m-1088 -32 c-15 -15 -26 -4 -18 18 5 13 9 15 18 6 9 -9 9 -15 0 -24z
m998 2 c0 -11 -4 -20 -10 -20 -5 0 -10 9 -10 20 0 11 5 20 10 20 6 0 10 -9 10
-20z m325 10 c4 -6 -5 -10 -19 -10 -14 0 -26 5 -26 10 0 6 9 10 19 10 11 0 23
-4 26 -10z m-10595 -48 c0 -13 -11 -10 -37 11 -7 5 -10 13 -7 18 7 12 44 -13
44 -29z m8520 28 c0 -5 -5 -10 -11 -10 -5 0 -7 5 -4 10 3 6 8 10 11 10 2 0 4
-4 4 -10z m-8585 -10 c-3 -5 -10 -10 -16 -10 -5 0 -9 5 -9 10 0 6 7 10 16 10
8 0 12 -4 9 -10z m145 1 c0 -5 -7 -11 -15 -15 -9 -3 -15 0 -15 9 0 8 7 15 15
15 8 0 15 -4 15 -9z m-217 -18 c8 -7 -11 -33 -24 -33 -5 0 -9 9 -9 20 0 19 20
27 33 13z m8270 -30 c3 -16 2 -44 -3 -63 -7 -32 -10 -34 -14 -12 -1 4 -4 12
-8 17 -10 16 -13 69 -4 83 11 17 22 7 29 -25z m293 -10 c-1 -35 -5 -49 -17
-51 -33 -6 -34 83 -1 91 10 3 18 5 18 6 1 0 1 -20 0 -46z m334 36 c0 -6 9 -9
20 -6 26 7 31 -3 21 -41 -7 -23 -6 -32 5 -36 12 -5 12 -9 2 -25 -10 -16 -15
-18 -26 -8 -8 6 -25 13 -39 15 -21 2 -24 0 -18 -20 3 -13 3 -18 -2 -12 -4 7
-20 10 -35 9 -18 -2 -28 2 -28 10 0 15 31 25 77 25 17 0 34 4 37 9 3 5 -27 9
-67 10 -106 2 -103 1 -102 35 0 29 3 31 33 30 17 -1 32 2 32 7 0 5 20 9 45 9
26 0 45 -5 45 -11z m455 1 c4 -6 -9 -10 -32 -9 -30 0 -34 2 -18 9 27 12 43 12
50 0z m98 -8 c-22 -3 -33 -22 -13 -22 6 0 10 -10 10 -23 0 -19 -5 -22 -37 -22
-34 0 -38 3 -39 27 -2 45 17 58 70 49 26 -4 27 -6 9 -9z m97 8 c0 -5 -11 -10
-25 -10 -14 0 -25 5 -25 10 0 6 11 10 25 10 14 0 25 -4 25 -10z m860 -15 c0
-14 -4 -25 -10 -25 -11 0 -14 33 -3 43 11 11 13 8 13 -18z m155 -16 c6 -25 4
-27 -29 -31 -34 -4 -36 -2 -36 24 0 20 6 31 23 37 26 10 33 5 42 -30z m-2395
6 c0 -14 -4 -25 -10 -25 -5 0 -10 11 -10 25 0 14 5 25 10 25 6 0 10 -11 10
-25z m168 3 c15 -31 9 -92 -10 -96 -11 -2 -17 9 -22 35 -9 59 -7 83 7 83 8 0
19 -10 25 -22z m100 -18 c0 -42 -18 -69 -18 -28 0 13 -3 33 -6 46 -5 16 -2 22
9 22 12 0 16 -10 15 -40z m43 13 c0 -16 2 -37 4 -47 6 -31 -8 -44 -16 -16 -11
38 -10 90 1 90 6 0 10 -12 11 -27z m187 20 c-17 -4 -22 -15 -19 -40 1 -7 -3
-13 -9 -13 -5 0 -10 14 -10 30 0 26 3 30 28 29 16 -1 20 -3 10 -6z m1962 -3
c0 -5 -4 -10 -10 -10 -5 0 -10 5 -10 10 0 6 5 10 10 10 6 0 10 -4 10 -10z
m-370 -25 c0 -8 -7 -15 -15 -15 -9 0 -12 6 -9 15 4 8 10 15 15 15 5 0 9 -7 9
-15z m-900 -21 c0 -8 -10 -14 -25 -14 -18 0 -25 5 -25 19 0 14 6 17 25 13 14
-2 25 -11 25 -18z m214 10 c3 -9 4 -20 0 -25 -7 -12 -54 -11 -54 1 0 6 5 10
11 10 6 0 9 7 5 15 -3 10 1 15 13 15 10 0 22 -7 25 -16z m1176 6 c0 -5 -5 -10
-11 -10 -5 0 -7 5 -4 10 3 6 8 10 11 10 2 0 4 -4 4 -10z m-10846 -20 c7 -7 4
-10 -7 -10 -9 0 -17 -4 -17 -10 0 -5 5 -10 10 -10 6 0 10 -11 10 -25 0 -19 -5
-25 -22 -24 -21 0 -21 1 -4 8 18 7 18 8 0 26 -18 18 -19 17 -24 -6 -7 -27 -40
-40 -40 -15 0 9 5 16 10 16 6 0 10 9 10 20 0 11 -4 20 -10 20 -5 0 -10 -7 -10
-15 0 -8 -4 -15 -10 -15 -17 0 -11 21 13 41 23 20 71 19 91 -1z m8488 8 c6
-16 -1 -38 -12 -38 -10 0 -20 37 -12 44 9 10 20 7 24 -6z m694 -25 c-10 -10
-19 5 -10 18 6 11 8 11 12 0 2 -7 1 -15 -2 -18z m1324 6 c0 -17 -3 -18 -20 -7
-11 7 -20 15 -20 18 0 3 9 6 20 7 14 1 20 -4 20 -18z m-750 -20 c0 -5 -12 -9
-26 -9 -14 0 -23 4 -20 8 7 11 46 12 46 1z m138 0 c-2 -6 -7 -10 -11 -10 -4 1
-15 1 -24 2 -15 0 -15 2 2 9 28 12 37 12 33 -1z m-11345 -6 c-7 -2 -19 -2 -25
0 -7 3 -2 5 12 5 14 0 19 -2 13 -5z m2387 3 c0 -3 -4 -8 -10 -11 -5 -3 -10 -1
-10 4 0 6 5 11 10 11 6 0 10 -2 10 -4z m8860 0 c0 -3 -4 -8 -10 -11 -5 -3 -10
-1 -10 4 0 6 5 11 10 11 6 0 10 -2 10 -4z m-700 -16 c0 -5 -2 -10 -4 -10 -3 0
-8 5 -11 10 -3 6 -1 10 4 10 6 0 11 -4 11 -10z m-260 -21 c0 -5 -11 -9 -25 -9
-28 0 -34 16 -7 23 20 4 32 -1 32 -14z m-9210 1 c0 -5 -5 -10 -11 -10 -5 0 -7
5 -4 10 3 6 8 10 11 10 2 0 4 -4 4 -10z m1115 -39 c6 -26 4 -32 -6 -29 -8 3
-15 22 -17 44 -4 46 12 36 23 -15z m8032 43 c-3 -3 -12 -4 -19 -1 -8 3 -5 6 6
6 11 1 17 -2 13 -5z m-8986 -35 c-3 -16 -9 -30 -14 -30 -4 1 -7 3 -7 6 0 3 0
16 0 30 0 15 6 25 14 25 10 0 12 -8 7 -31z m1049 17 c0 -21 -21 -31 -31 -15
-14 22 -11 29 11 29 11 0 20 -6 20 -14z m8800 -1 c-14 -17 -30 -20 -30 -6 0 5
8 12 18 14 9 3 19 5 21 6 2 0 -2 -6 -9 -14z m-8705 -5 c3 -5 -1 -10 -10 -10
-9 0 -13 5 -10 10 3 6 8 10 10 10 2 0 7 -4 10 -10z m-2627 -12 c-6 -18 -28
-21 -28 -4 0 9 7 16 16 16 9 0 14 -5 12 -12z m1292 -28 c0 -5 -4 -10 -10 -10
-5 0 -10 5 -10 10 0 6 5 10 10 10 6 0 10 -4 10 -10z m-802 -7 c-10 -2 -26 -2
-35 0 -10 3 -2 5 17 5 19 0 27 -2 18 -5z m42 -3 c0 -5 -4 -10 -10 -10 -5 0
-10 5 -10 10 0 6 5 10 10 10 6 0 10 -4 10 -10z m1330 -10 c0 -5 -11 -10 -25
-10 -14 0 -25 5 -25 10 0 6 11 10 25 10 14 0 25 -4 25 -10z"/>
<path d="M10845 780 c3 -5 13 -10 21 -10 8 0 14 5 14 10 0 6 -9 10 -21 10 -11
0 -17 -4 -14 -10z"/>
<path d="M2475 670 c3 -5 12 -10 20 -10 8 0 17 5 20 10 4 6 -5 10 -20 10 -15
0 -24 -4 -20 -10z"/>
<path d="M2387 1470 c8 -31 73 -40 73 -10 0 7 -53 30 -71 30 -4 0 -5 -9 -2
-20z"/>
<path d="M0 1368 c0 -15 5 -30 11 -33 19 -12 21 2 5 32 l-15 28 -1 -27z"/>
<path d="M0 1269 c0 -5 5 -7 10 -4 5 3 10 8 10 11 0 2 -4 4 -10 4 -5 0 -10 -5
-10 -11z"/>
<path d="M1 1019 c0 -151 1 -170 14 -153 8 11 15 27 15 37 0 20 11 22 28 5 24
-24 12 11 -13 38 -14 15 -25 30 -25 35 0 4 18 26 40 48 22 22 40 43 40 47 0 3
-9 13 -20 22 -11 10 -28 32 -38 51 -36 72 -42 53 -41 -130z m39 91 c0 -5 -2
-10 -4 -10 -3 0 -8 5 -11 10 -3 6 -1 10 4 10 6 0 11 -4 11 -10z"/>
<path d="M1238 837 c-7 -20 -2 -77 7 -77 11 0 17 78 6 84 -5 3 -11 0 -13 -7z"/>
<path d="M1285 820 c3 -5 8 -10 11 -10 2 0 4 5 4 10 0 6 -5 10 -11 10 -5 0 -7
-4 -4 -10z"/>
<path d="M1892 784 c9 -9 21 -13 27 -9 16 10 3 25 -22 25 -20 0 -20 -1 -5 -16z"/>
<path d="M1280 780 c0 -5 5 -10 10 -10 6 0 10 5 10 10 0 6 -4 10 -10 10 -5 0
-10 -4 -10 -10z"/>
<path d="M12880 730 c0 -5 9 -10 20 -10 11 0 20 5 20 10 0 6 -9 10 -20 10 -11
0 -20 -4 -20 -10z"/>
<path d="M12890 690 c0 -5 7 -10 15 -10 8 0 15 5 15 10 0 6 -7 10 -15 10 -8 0
-15 -4 -15 -10z"/>
<path d="M460 455 c0 -8 5 -15 10 -15 6 0 10 7 10 15 0 8 -4 15 -10 15 -5 0
-10 -7 -10 -15z"/>
<path d="M10950 450 c0 -5 4 -10 9 -10 6 0 13 5 16 10 3 6 -1 10 -9 10 -9 0
-16 -4 -16 -10z"/>
<path d="M11970 445 c0 -8 -7 -15 -15 -15 -8 0 -15 -4 -15 -10 0 -5 4 -10 9
-10 6 0 13 5 16 10 3 6 14 10 24 10 10 0 24 7 31 15 11 13 8 15 -19 15 -21 0
-31 -5 -31 -15z"/>
<path d="M11352 434 c-13 -9 -31 -13 -43 -9 -25 8 -119 -4 -119 -15 0 -10 226
-8 236 3 10 10 -16 37 -35 37 -9 0 -27 -7 -39 -16z"/>
<path d="M11040 420 c-19 -12 49 -21 71 -10 13 7 19 7 19 0 0 -5 11 -10 25
-10 14 0 25 6 25 13 0 10 -18 14 -64 14 -35 0 -69 -3 -76 -7z"/>
<path d="M11780 423 c-14 -3 -29 -9 -35 -14 -6 -6 25 -9 83 -8 51 1 95 5 98
10 3 5 -5 9 -18 10 -13 1 -41 2 -63 3 -22 2 -51 1 -65 -1z"/>
<path d="M11580 411 c0 -5 7 -12 16 -15 28 -11 54 -6 54 9 0 10 -11 15 -35 15
-19 0 -35 -4 -35 -9z"/>
<path d="M12047 409 c-24 -14 -12 -29 23 -29 36 0 47 16 21 29 -23 13 -21 13
-44 0z"/>
<path d="M980 291 c0 -14 37 -23 60 -16 11 4 18 11 15 16 -8 12 -75 12 -75 0z"/>
</g>
</svg>
